<svg xmlns="http://www.w3.org/2000/svg" xmlns:xlink="http://www.w3.org/1999/xlink" width="250" zoomAndPan="magnify" viewBox="0 0 187.5 112.499997" height="150" preserveAspectRatio="xMidYMid meet" version="1.0"><defs><g/><clipPath id="91ab44db44"><path d="M 65.457031 79.421875 L 70.738281 79.421875 L 70.738281 84.703125 L 65.457031 84.703125 Z M 65.457031 79.421875 " clip-rule="nonzero"/></clipPath><clipPath id="cd027614bb"><path d="M 68.097656 79.421875 C 66.640625 79.421875 65.457031 80.605469 65.457031 82.0625 C 65.457031 83.519531 66.640625 84.703125 68.097656 84.703125 C 69.554688 84.703125 70.738281 83.519531 70.738281 82.0625 C 70.738281 80.605469 69.554688 79.421875 68.097656 79.421875 Z M 68.097656 79.421875 " clip-rule="nonzero"/></clipPath><clipPath id="1127c71709"><path d="M 102.863281 35.769531 L 113.609375 35.769531 L 113.609375 46.511719 L 102.863281 46.511719 Z M 102.863281 35.769531 " clip-rule="nonzero"/></clipPath><clipPath id="a6d3c23694"><path d="M 108.234375 35.769531 C 105.269531 35.769531 102.863281 38.171875 102.863281 41.140625 C 102.863281 44.105469 105.269531 46.511719 108.234375 46.511719 C 111.203125 46.511719 113.609375 44.105469 113.609375 41.140625 C 113.609375 38.171875 111.203125 35.769531 108.234375 35.769531 Z M 108.234375 35.769531 " clip-rule="nonzero"/></clipPath></defs><g fill="#376240" fill-opacity="1"><g transform="translate(65.806087, 80.892672)"><g><path d="M 9.5625 -3.21875 L 9.5625 -6.433594 L 4.144531 -6.433594 L 4.144531 -8.097656 C 4.144531 -9.917969 5.574219 -11.402344 7.328125 -11.402344 C 9.023438 -11.402344 10.417969 -9.882812 10.417969 -8.007812 L 10.417969 3.21875 L 14.316406 3.21875 L 14.316406 -7.808594 C 14.316406 -11.5625 11.171875 -14.621094 7.308594 -14.621094 C 3.414062 -14.621094 0.25 -11.582031 0.25 -7.828125 L 0.25 -3.21875 Z M 9.5625 -3.21875 "/></g></g></g><g fill="#376240" fill-opacity="1"><g transform="translate(80.656428, 80.892672)"><g><path d="M 0.535156 -14.242188 L 0.535156 3.21875 L 4.433594 3.21875 L 4.433594 -11.027344 L 7.308594 -11.027344 C 9.292969 -11.027344 11.082031 -9.4375 11.082031 -7.09375 C 11.082031 -4.523438 9.382812 -3.21875 7.398438 -3.21875 L 5.289062 -3.21875 L 5.289062 0 L 8.417969 0 C 12.261719 0 15.191406 -3.359375 15.191406 -7.09375 C 15.191406 -11.132812 12.082031 -14.242188 7.972656 -14.242188 Z M 0.535156 -14.242188 "/></g></g></g><g fill="#376240" fill-opacity="1"><g transform="translate(96.096496, 80.892672)"><g><path d="M 0.535156 -14.242188 L 0.535156 3.21875 L 4.433594 3.21875 L 4.433594 -11.027344 L 7.308594 -11.027344 C 9.292969 -11.027344 11.082031 -9.4375 11.082031 -7.09375 C 11.082031 -4.523438 9.382812 -3.21875 7.398438 -3.21875 L 5.289062 -3.21875 L 5.289062 0 L 8.417969 0 C 12.261719 0 15.191406 -3.359375 15.191406 -7.09375 C 15.191406 -11.132812 12.082031 -14.242188 7.972656 -14.242188 Z M 0.535156 -14.242188 "/></g></g></g><g fill="#376240" fill-opacity="1"><g transform="translate(111.536564, 80.892672)"><g><path d="M 1 -14.242188 C 0.839844 -13.652344 0.75 -13.101562 0.75 -12.617188 C 0.75 -8.453125 5.789062 -8.183594 5.789062 -4.914062 C 5.789062 -3.878906 4.324219 -3.21875 3.394531 -3.21875 L 0.285156 -3.21875 L 0.285156 0 L 4.699219 0 C 7.183594 0 9.902344 -2.214844 9.902344 -4.96875 C 9.902344 -10.257812 4.683594 -10.792969 4.699219 -13.242188 C 4.699219 -13.546875 4.753906 -13.867188 4.914062 -14.242188 Z M 1 -14.242188 "/></g></g></g><g fill="#376240" fill-opacity="1"><g transform="translate(3.236114, 54.795925)"><g><path d="M 18.851562 -6.34375 L 18.851562 -12.6875 L 8.175781 -12.6875 L 8.175781 -15.964844 C 8.175781 -19.558594 10.996094 -22.480469 14.449219 -22.480469 C 17.796875 -22.480469 20.542969 -19.488281 20.542969 -15.785156 L 20.542969 6.34375 L 28.226562 6.34375 L 28.226562 -15.398438 C 28.226562 -22.800781 22.023438 -28.824219 14.414062 -28.824219 C 6.730469 -28.824219 0.492188 -22.835938 0.492188 -15.433594 L 0.492188 -6.34375 Z M 18.851562 -6.34375 "/></g></g></g><g fill="#376240" fill-opacity="1"><g transform="translate(32.51912, 54.795925)"><g><path d="M 0.847656 -28.085938 L 0.847656 -9.761719 C 0.847656 -4.050781 5.921875 0 11.523438 0 L 27.945312 0 L 27.945312 -28.085938 L 20.261719 -28.085938 L 20.261719 -6.34375 L 13.953125 -6.34375 C 10.996094 -6.34375 8.527344 -8.84375 8.527344 -11.734375 L 8.527344 -28.085938 Z M 0.847656 -28.085938 "/></g></g><g transform="translate(61.520216, 54.795925)"><g><path d="M 1.058594 -28.085938 L 1.058594 0 L 8.738281 0 L 8.738281 -21.742188 L 16.738281 -21.742188 C 19.097656 -21.742188 21.390625 -19.945312 21.390625 -17.125 C 21.390625 -14.589844 19.203125 -12.578125 17.019531 -12.578125 L 10.429688 -12.578125 L 10.429688 -6.238281 L 15.964844 -6.238281 C 18.992188 -6.238281 20.542969 -4.476562 20.542969 -1.09375 L 20.542969 6.34375 L 28.226562 6.34375 L 28.226562 -1.65625 C 28.226562 -4.6875 27.132812 -7.363281 23.679688 -8.949219 C 27.273438 -9.902344 29.496094 -14.09375 29.496094 -17.832031 C 29.496094 -22.90625 25.125 -28.085938 19.628906 -28.085938 Z M 1.058594 -28.085938 "/></g></g></g><g fill="#376240" fill-opacity="1"><g transform="translate(91.507986, 54.795925)"><g><path d="M 16.738281 -22.480469 C 21.671875 -22.480469 24.878906 -18.921875 24.878906 -13.988281 C 24.878906 -8.84375 21.707031 -5.601562 16.738281 -5.601562 C 11.769531 -5.601562 8.597656 -9.445312 8.597656 -13.988281 C 8.597656 -18.851562 11.769531 -22.480469 16.738281 -22.480469 Z M 16.738281 0.738281 C 25.335938 0.738281 32.984375 -4.265625 32.984375 -13.988281 C 32.984375 -23.503906 25.40625 -28.824219 16.738281 -28.824219 C 8.175781 -28.824219 0.492188 -23.503906 0.492188 -13.988281 C 0.492188 -4.300781 8.175781 0.738281 16.738281 0.738281 Z M 16.738281 0.738281 "/></g></g></g><g fill="#376240" fill-opacity="1"><g transform="translate(124.98435, 54.795925)"><g><path d="M 1.058594 -28.085938 L 1.058594 0 L 8.738281 0 L 8.738281 -21.742188 L 16.738281 -21.742188 C 19.097656 -21.742188 21.390625 -19.945312 21.390625 -17.125 C 21.390625 -14.589844 19.203125 -12.578125 17.019531 -12.578125 L 10.429688 -12.578125 L 10.429688 -6.238281 L 15.964844 -6.238281 C 18.992188 -6.238281 20.542969 -4.476562 20.542969 -1.09375 L 20.542969 6.34375 L 28.226562 6.34375 L 28.226562 -1.65625 C 28.226562 -4.6875 27.132812 -7.363281 23.679688 -8.949219 C 27.273438 -9.902344 29.496094 -14.09375 29.496094 -17.832031 C 29.496094 -22.90625 25.125 -28.085938 19.628906 -28.085938 Z M 1.058594 -28.085938 "/></g></g></g><g fill="#376240" fill-opacity="1"><g transform="translate(154.972114, 54.795925)"><g><path d="M 18.851562 -6.34375 L 18.851562 -12.6875 L 8.175781 -12.6875 L 8.175781 -15.964844 C 8.175781 -19.558594 10.996094 -22.480469 14.449219 -22.480469 C 17.796875 -22.480469 20.542969 -19.488281 20.542969 -15.785156 L 20.542969 6.34375 L 28.226562 6.34375 L 28.226562 -15.398438 C 28.226562 -22.800781 22.023438 -28.824219 14.414062 -28.824219 C 6.730469 -28.824219 0.492188 -22.835938 0.492188 -15.433594 L 0.492188 -6.34375 Z M 18.851562 -6.34375 "/></g></g></g><path stroke-linecap="butt" transform="matrix(0.753545, -0.000000000000001121, 0.000000000000001114, 0.748672, 38.855825, 57.898803)" fill="none" stroke-linejoin="miter" d="M -0.000472223 1.99784 L 28.816462 1.99784 " stroke="#376240" stroke-width="4" stroke-opacity="1" stroke-miterlimit="4"/><g clip-path="url(#91ab44db44)"><g clip-path="url(#cd027614bb)"><path fill="#376240" d="M 65.457031 79.421875 L 70.738281 79.421875 L 70.738281 84.703125 L 65.457031 84.703125 Z M 65.457031 79.421875 " fill-opacity="1" fill-rule="nonzero"/></g></g><g clip-path="url(#1127c71709)"><g clip-path="url(#a6d3c23694)"><path fill="#376240" d="M 102.863281 35.769531 L 113.609375 35.769531 L 113.609375 46.511719 L 102.863281 46.511719 Z M 102.863281 35.769531 " fill-opacity="1" fill-rule="nonzero"/></g></g></svg>