<svg width="114" height="103" viewBox="0 0 114 103" fill="none" xmlns="http://www.w3.org/2000/svg">
<path d="M39.3038 33C41.6132 29 47.3867 29 49.6962 33L84.7702 93.75C87.0796 97.75 84.1928 102.75 79.574 102.75H9.42598C4.80717 102.75 1.92042 97.75 4.22982 93.75L39.3038 33Z" fill="#F1B7B7"/>
<path d="M28.72 63.56C31.92 63.56 34.3467 64.24 36 65.6C37.6533 66.96 38.48 68.9333 38.48 71.52V85H35.08V80.56C34.28 82.1067 33.0667 83.32 31.44 84.2C29.8133 85.0533 27.8667 85.48 25.6 85.48C22.96 85.48 20.9867 84.9333 19.68 83.84C18.3733 82.7467 17.72 81.3067 17.72 79.52C17.72 77.5733 18.5067 76.08 20.08 75.04C21.68 74 24.08 73.3467 27.28 73.08L34.8 72.48V70.76C34.8 69.4267 34.28 68.3333 33.24 67.48C32.2267 66.6267 30.72 66.2 28.72 66.2C26.96 66.2 25.5067 66.5333 24.36 67.2C23.2133 67.8667 22.56 68.8667 22.4 70.2H18.96C19.12 67.9333 20.08 66.2667 21.84 65.2C23.6267 64.1067 25.92 63.56 28.72 63.56ZM26.6 82.88C29.1333 82.88 31.1333 82.24 32.6 80.96C34.0667 79.68 34.8 78.0267 34.8 76V74.8L27.72 75.4C23.48 75.72 21.36 77.04 21.36 79.36C21.36 80.4 21.7867 81.2533 22.64 81.92C23.52 82.56 24.84 82.88 26.6 82.88ZM67.2372 85L64.2372 77.72H48.7972L45.7972 85H41.9572L53.7172 57H59.4372L71.1972 85H67.2372ZM49.9972 74.76H63.0372L56.5172 58.88L49.9972 74.76Z" fill="green"/>
<rect x="11" y="1" width="92" height="92" stroke="green" stroke-width="2"/>
<path fill-rule="evenodd" clip-rule="evenodd" d="M6.52951 30.8021C5.76632 31.5247 5.03971 32.2127 4.34683 32.844L1.65283 29.8873C2.26879 29.3261 2.94183 28.6834 3.6727 27.9856C9.28867 22.6233 18.3195 14.0003 31.1079 14H31.1079C42.5229 14 49.7112 20.4075 60.5916 30.1063C61.3084 30.7452 62.0412 31.3984 62.7923 32.065C68.55 37.1751 76.909 39.9334 85.0915 39.9988C93.2931 40.0644 100.94 37.4308 105.497 32.2413L108.503 34.8804C102.94 41.2156 94.0039 44.0702 85.0595 43.9987C76.0961 43.927 66.7469 40.923 60.1371 35.0567C59.5599 34.5444 58.9962 34.0432 58.4451 33.5531C46.9834 23.3613 40.9541 18 31.108 18M6.52951 30.8021C12.2589 25.3773 20.0499 18.0003 31.1079 18L6.52951 30.8021Z" fill="green"/>
<rect x="104" y="26" width="10" height="19" fill="white"/>
<rect y="19" width="10" height="19" fill="white"/>
<circle cx="32.5" cy="15.5" r="7.5" fill="green"/>
<circle cx="32.5" cy="15.5" r="3.5" fill="white"/>
<circle cx="83.5" cy="41.5" r="7.5" fill="green"/>
<circle cx="83.5" cy="41.5" r="3.5" fill="white"/>
</svg>
