<svg width="86" height="104" viewBox="0 0 86 104" fill="none" xmlns="http://www.w3.org/2000/svg">
<ellipse cx="45.7929" cy="55.9042" rx="45.5" ry="37" transform="rotate(-60 45.7929 55.9042)" fill="#F0E0C0"/>
<rect x="1" y="103" width="102" height="66" rx="7" transform="rotate(-90 1 103)" stroke="green" stroke-width="2"/>
<rect y="84" width="68" height="2" fill="white"/>
<circle cx="34" cy="93" r="3" fill="white"/>
<circle cx="34" cy="10" r="3" fill="white"/>
<path d="M43.04 55.56C45.44 55.56 47.3333 56.2533 48.72 57.64C50.1333 59.0267 50.84 61 50.84 63.56V77H47.2V64.56C47.2 62.6667 46.7333 61.2 45.8 60.16C44.8933 59.0933 43.5733 58.56 41.84 58.56C39.8133 58.56 38.2 59.2533 37 60.64C35.8267 62.0267 35.24 63.92 35.24 66.32V77H31.56V64.56C31.56 62.6667 31.0933 61.2 30.16 60.16C29.2533 59.0933 27.9333 58.56 26.2 58.56C24.1733 58.56 22.56 59.2533 21.36 60.64C20.16 62.0267 19.56 63.92 19.56 66.32V77H15.88V56.04H19.28V60.52C20.7733 57.2133 23.48 55.56 27.4 55.56C29.2933 55.56 30.88 56 32.16 56.88C33.4667 57.76 34.36 59.0267 34.84 60.68C35.5333 59.0533 36.5867 57.8 38 56.92C39.44 56.0133 41.12 55.56 43.04 55.56Z" fill="green"/>
</svg>
