<svg width="106" height="86" viewBox="0 0 106 86" fill="none" xmlns="http://www.w3.org/2000/svg">
<path fill-rule="evenodd" clip-rule="evenodd" d="M75.8861 5.41433C74.1348 -1.80478 63.8652 -1.80478 62.1139 5.41433C60.9792 10.0804 55.6512 12.2922 51.5401 9.79267C45.1926 5.92822 37.9323 13.1926 41.7968 19.536C42.3777 20.4888 42.7254 21.5652 42.8117 22.6778C42.8979 23.7903 42.7203 24.9075 42.2932 25.9384C41.8661 26.9693 41.2016 27.8848 40.3538 28.6104C39.506 29.336 38.4988 29.8511 37.4143 30.1139C30.1952 31.8652 30.1952 42.1348 37.4143 43.8861C38.4979 44.1496 39.504 44.6651 40.3508 45.3906C41.1976 46.1161 41.8613 47.0312 42.2879 48.0614C42.7146 49.0917 42.892 50.2081 42.806 51.3199C42.7199 52.4317 42.3727 53.5075 41.7927 54.4599C37.9282 60.8074 45.1926 68.0677 51.536 64.2032C52.4888 63.6223 53.5652 63.2746 54.6778 63.1883C55.7903 63.1021 56.9075 63.2797 57.9384 63.7068C58.9693 64.1339 59.8848 64.7984 60.6104 65.6462C61.336 66.494 61.8511 67.5012 62.1139 68.5857C63.8652 75.8048 74.1348 75.8048 75.8861 68.5857C76.1496 67.5021 76.6651 66.496 77.3906 65.6492C78.1161 64.8024 79.0312 64.1387 80.0614 63.7121C81.0917 63.2854 82.2081 63.1079 83.3199 63.194C84.4317 63.2801 85.5075 63.6273 86.4599 64.2073C92.8074 68.0718 100.068 60.8074 96.2032 54.464C95.6223 53.5112 95.2746 52.4348 95.1883 51.3222C95.1021 50.2097 95.2797 49.0925 95.7068 48.0616C96.1339 47.0307 96.7984 46.1152 97.6462 45.3896C98.494 44.664 99.5012 44.1489 100.586 43.8861C107.805 42.1348 107.805 31.8652 100.586 30.1139C99.5021 29.8504 98.496 29.3349 97.6492 28.6094C96.8024 27.8839 96.1387 26.9688 95.7121 25.9386C95.2854 24.9083 95.1079 23.7919 95.194 22.6801C95.2801 21.5683 95.6273 20.4925 96.2073 19.5401C100.072 13.1926 92.8074 5.93233 86.464 9.79678C85.5112 10.3777 84.4348 10.7254 83.3222 10.8117C82.2097 10.8979 81.0925 10.7203 80.0616 10.2932C79.0307 9.86607 78.1152 9.20157 77.3896 8.35378C76.664 7.50598 76.1489 6.49884 75.8861 5.41433ZM81 37C81 43.6274 75.6274 49 69 49C62.3726 49 57 43.6274 57 37C57 30.3726 62.3726 25 69 25C75.6274 25 81 30.3726 81 37Z" fill="#C0C5F0"/>
<rect x="1" y="23" width="88" height="28" rx="7" stroke="green" stroke-width="2"/>
<rect x="10" y="32" width="17" height="10" rx="5" fill="white"/>
<rect x="1" y="57" width="88" height="28" rx="7" stroke="green" stroke-width="2"/>
<rect x="10" y="66" width="17" height="10" rx="5" fill="white"/>
</svg>
