<svg width="118" height="99" viewBox="0 0 118 99" fill="none" xmlns="http://www.w3.org/2000/svg">
<path fill-rule="evenodd" clip-rule="evenodd" d="M37 74C57.4345 74 74 57.4345 74 37C74 16.5655 57.4345 0 37 0C16.5655 0 0 16.5655 0 37C0 57.4345 16.5655 74 37 74ZM37 53C45.8366 53 53 45.8366 53 37C53 28.1634 45.8366 21 37 21C28.1634 21 21 28.1634 21 37C21 45.8366 28.1634 53 37 53Z" fill="#F5CD8F"/>
<path d="M15 22C15 18.134 18.134 15 22 15H110C113.866 15 117 18.134 117 22V74C117 77.866 113.866 81 110 81H71.3956C69.6388 81 67.9271 81.5088 66.4573 82.4759C61.5446 85.7084 49.1482 93.866 47.9453 94.668C46.1054 95.8946 43.5 94.48 43.5 92.0527V85.5C43.5 83.0147 41.4853 81 39 81H31.5H22C18.134 81 15 77.866 15 74V22Z" stroke="green" stroke-width="2"/>
<rect x="66" y="35" width="36" height="4" rx="2" fill="white"/>
<rect x="66" y="43" width="36" height="4" rx="2" fill="white"/>
<rect x="66" y="51" width="36" height="4" rx="2" fill="white"/>
<path d="M30 62.28C30.1067 64.2267 30.92 65.76 32.44 66.88C33.9867 67.9733 36.2 68.52 39.08 68.52C41.4 68.52 43.3333 68.1467 44.88 67.4C46.4533 66.6533 47.24 65.4933 47.24 63.92C47.24 62.8267 46.8133 61.92 45.96 61.2C45.1067 60.48 43.72 59.8533 41.8 59.32L34.56 57.4C29.8933 56.1467 27.56 53.7067 27.56 50.08C27.56 47.5733 28.56 45.6933 30.56 44.44C32.5867 43.16 35.16 42.52 38.28 42.52C41.6667 42.52 44.4133 43.24 46.52 44.68C48.6533 46.12 49.84 48.1333 50.08 50.72L46.48 50.92C46.3467 49.2933 45.5467 47.9867 44.08 47C42.6133 45.9867 40.6533 45.48 38.2 45.48C36.12 45.48 34.4533 45.8667 33.2 46.64C31.9733 47.3867 31.36 48.4533 31.36 49.84C31.36 51.9467 33.04 53.4533 36.4 54.36L43.48 56.24C46.0667 56.9067 47.9733 57.8267 49.2 59C50.4533 60.1733 51.08 61.72 51.08 63.64C51.08 66.2533 50.0133 68.2133 47.88 69.52C45.7467 70.8267 42.8133 71.48 39.08 71.48C35.08 71.48 32.0133 70.7067 29.88 69.16C27.7467 67.6133 26.5867 65.3733 26.4 62.44L30 62.28Z" fill="green"/>
</svg>
