<svg width="112" height="117" viewBox="0 0 112 117" fill="none" xmlns="http://www.w3.org/2000/svg">
<rect y="48.3447" width="68.3703" height="68.3703" rx="6" transform="rotate(-45 0 48.3447)" fill="#A5D4B3"/>
<rect x="22.8735" y="27.874" width="88" height="88" rx="7" stroke="green" stroke-width="2"/>
<rect x="66.8735" y="79.874" width="31" height="4" rx="2" fill="white"/>
<rect x="66.8735" y="71.874" width="31" height="4" rx="2" fill="white"/>
<path d="M52.2735 42.874C56.7802 42.874 60.2735 44.114 62.7535 46.594C65.2335 49.074 66.4735 52.5007 66.4735 56.874C66.4735 61.2474 65.2335 64.674 62.7535 67.154C60.2735 69.634 56.7802 70.874 52.2735 70.874H40.5135V42.874H52.2735ZM51.8735 67.714C55.3402 67.714 57.9935 66.7407 59.8335 64.794C61.7002 62.8474 62.6335 60.2074 62.6335 56.874C62.6335 53.5407 61.7002 50.9007 59.8335 48.954C57.9935 47.0074 55.3402 46.034 51.8735 46.034H44.3535V67.714H51.8735Z" fill="green"/>
<path fill-rule="evenodd" clip-rule="evenodd" d="M71.8735 93.874C69.1121 93.874 66.8735 96.1126 66.8735 98.874C66.8735 101.635 69.1121 103.874 71.8735 103.874H78.8735C81.635 103.874 83.8735 101.635 83.8735 98.874C83.8735 96.1126 81.635 93.874 78.8735 93.874H71.8735ZM78.8735 101.874C80.5304 101.874 81.8735 100.531 81.8735 98.874C81.8735 97.2172 80.5304 95.874 78.8735 95.874C77.2167 95.874 75.8735 97.2172 75.8735 98.874C75.8735 100.531 77.2167 101.874 78.8735 101.874Z" fill="white"/>
</svg>
